<svg xmlns="http://www.w3.org/2000/svg" version="1.1" xmlns:xlink="http://www.w3.org/1999/xlink" xmlns:svgjs="http://svgjs.dev/svgjs" width="2000" height="425" viewBox="0 0 2000 425"><g transform="matrix(1,0,0,1,1.0867980996746383,1.3377975205242763)"><svg viewBox="0 0 277 59" data-background-color="#000000" preserveAspectRatio="xMidYMid meet" height="425" width="2000" xmlns="http://www.w3.org/2000/svg" xmlns:xlink="http://www.w3.org/1999/xlink"><g id="tight-bounds" transform="matrix(1,0,0,1,-0.15052153680494484,-0.18571777343748863)"><svg viewBox="0 0 277.3010430736099 59.371435546875" height="59.371435546875" width="277.3010430736099"><g><svg viewBox="0 0 277.3010430736099 59.371435546875" height="59.371435546875" width="277.3010430736099"><g><svg viewBox="0 0 277.3010430736099 59.371435546875" height="59.371435546875" width="277.3010430736099"><g id="textblocktransform"><svg viewBox="0 0 277.3010430736099 59.371435546875" height="59.371435546875" width="277.3010430736099" id="textblock"><g><svg viewBox="0 0 277.3010430736099 59.371435546875" height="59.371435546875" width="277.3010430736099"><g><svg><g></g><g></g></svg></g><g><svg><g><svg></svg></g><g></g></svg></g><g id="text-0"><svg viewBox="0 0 277.3010430736099 59.371435546875" height="59.371435546875" width="277.3010430736099"><g transform="matrix(1,0,0,1,0,0)"><svg width="187.63427734375" viewBox="3.98 -35.99 115.96 36.7" height="59.371435546875" data-palette-color="url(#27b79e8d-7f3c-4ddb-a520-f4750d1b2040)"></svg></g><g><svg xmlns="http://www.w3.org/2000/svg" xmlns:xlink="http://www.w3.org/1999/xlink" version="1.1" x="201.651513671875" y="0" viewBox="16.647181205534803 25.890368060254534 68.24810386403662 53.56263193974547" enable-background="new 0 0 100 100" xml:space="preserve" height="59.371435546875" width="75.64952940173492" class="icon-cg-0" data-fill-palette-color="accent" id="cg-0"></svg></g></svg></g></svg></g></svg></g></svg></g><g></g></svg></g><defs></defs><mask id="7a70a598-46e5-4495-ac92-cf0153788a66"><g id="SvgjsG6905"><svg viewBox="0 0 277.3010430736099 59.371435546875" height="59.371435546875" width="277.3010430736099"><g><svg viewBox="0 0 277.3010430736099 59.371435546875" height="59.371435546875" width="277.3010430736099"><g><svg viewBox="0 0 277.3010430736099 59.371435546875" height="59.371435546875" width="277.3010430736099"><g id="SvgjsG6904"><svg viewBox="0 0 277.3010430736099 59.371435546875" height="59.371435546875" width="277.3010430736099" id="SvgjsSvg6903"><g><svg viewBox="0 0 277.3010430736099 59.371435546875" height="59.371435546875" width="277.3010430736099"><g><svg><g></g><g></g></svg></g><g><svg><g><svg></svg></g><g></g></svg></g><g id="SvgjsG6902"><svg viewBox="0 0 277.3010430736099 59.371435546875" height="59.371435546875" width="277.3010430736099"><g transform="matrix(1,0,0,1,0,0)"><svg width="187.63427734375" viewBox="3.98 -35.99 115.96 36.7" height="59.371435546875" data-palette-color="url(#27b79e8d-7f3c-4ddb-a520-f4750d1b2040)"><path d="M29.22-4.47L29.22 0 3.98 0 3.98-35.16 13.67-35.16 13.67-4.47 29.22-4.47ZM48.83 0L40.79-26.22 38.06 0 32.08 0 38.06-35.16 46.92-35.16 55.15-8.33 63.47-35.16 72.34-35.16 77.32 0 67.45 0 64.55-25.54 57.69 0 48.83 0ZM119.94-17.63L119.94-17.63Q119.94-13.38 118.48-9.97 117.01-6.57 114.42-4.2 111.84-1.83 108.3-0.56 104.76 0.71 100.63 0.71L100.63 0.71Q96.5 0.71 92.96-0.56 89.42-1.83 86.84-4.2 84.25-6.57 82.78-9.97 81.32-13.38 81.32-17.63L81.32-17.63Q81.32-21.95 82.77-25.35 84.22-28.76 86.8-31.12 89.37-33.47 92.91-34.73 96.45-35.99 100.63-35.99L100.63-35.99Q104.8-35.99 108.34-34.73 111.88-33.47 114.46-31.12 117.04-28.76 118.49-25.35 119.94-21.95 119.94-17.63ZM110.08-17.63L110.08-17.63Q110.08-19.24 109.93-20.92 109.79-22.61 109.39-24.19 109-25.78 108.33-27.17 107.66-28.56 106.61-29.6 105.56-30.64 104.08-31.24 102.61-31.84 100.63-31.84L100.63-31.84Q98.63-31.84 97.14-31.24 95.65-30.64 94.6-29.61 93.55-28.59 92.89-27.2 92.23-25.81 91.85-24.23 91.47-22.66 91.33-20.96 91.18-19.26 91.18-17.63L91.18-17.63Q91.18-16.02 91.33-14.33 91.47-12.65 91.87-11.07 92.26-9.5 92.93-8.11 93.6-6.71 94.65-5.68 95.7-4.64 97.18-4.03 98.65-3.42 100.63-3.42L100.63-3.42Q102.56-3.42 104-4.04 105.44-4.66 106.49-5.73 107.54-6.79 108.23-8.19 108.93-9.59 109.33-11.17 109.74-12.74 109.91-14.4 110.08-16.06 110.08-17.63Z" opacity="1" transform="matrix(1,0,0,1,0,0)" fill="white" class="wordmark-text-0"></path></svg></g><g><svg xmlns="http://www.w3.org/2000/svg" xmlns:xlink="http://www.w3.org/1999/xlink" version="1.1" x="201.651513671875" y="0" viewBox="16.647181205534803 25.890368060254534 68.24810386403662 53.56263193974547" enable-background="new 0 0 100 100" xml:space="preserve" height="59.371435546875" width="75.64952940173492" class="icon-cg-0" data-fill-palette-color="accent" id="SvgjsSvg6901"><path d="M84.808 39.07c-0.314-3.579-1.284-5.81-3.576-8.231-3.428-3.623-7.145-5.273-11.034-4.896-4.542 0.437-8.126 3.59-10.278 6.064-2.151-2.473-5.733-5.625-10.277-6.063-3.888-0.379-7.607 1.272-11.035 4.895-2.292 2.42-3.262 4.651-3.574 8.183-0.268 2.479 0.091 5.044 1.043 7.659-1.959-1.817-4.698-3.563-8-3.563-2.96 0-5.773 1.387-8.361 4.122-1.924 2.035-2.737 3.904-2.996 6.849-1.316 12.162 15.6 22.868 18.83 24.795 0.188 0.154 0.4 0.283 0.632 0.379 0.309 0.128 0.634 0.19 0.956 0.19 0.222 0 0.443-0.029 0.656-0.088 0.2-0.05 0.396-0.126 0.583-0.226 0.109-0.059 0.212-0.124 0.31-0.197 1.917-1.136 9.815-6.054 14.808-12.694 2.243 1.585 4.024 2.682 4.798 3.143 0.115 0.095 0.239 0.181 0.372 0.255 0.38 0.213 0.801 0.318 1.222 0.318 0.158 0 0.316-0.015 0.472-0.045 0.269-0.046 0.531-0.136 0.778-0.268 0.116-0.063 0.226-0.134 0.329-0.212C65.005 67.344 86.428 54.021 84.808 39.07zM37.167 74.015c-6.313-3.94-16.264-12.125-15.473-19.439 0.178-2.016 0.587-2.774 1.653-3.901 1.606-1.697 3.197-2.557 4.729-2.557 3.722 0 6.85 4.852 6.981 5.059 0.459 0.722 1.255 1.158 2.11 1.158 0 0 0.001 0 0.001 0 0.856-0.001 1.652-0.438 2.11-1.161 0.062-0.099 0.804-1.246 1.961-2.423 0.19-0.141 0.36-0.3 0.499-0.482 1.225-1.126 2.805-2.151 4.518-2.151 1.532 0 3.124 0.86 4.729 2.557 1.065 1.127 1.476 1.886 1.659 3.95C53.43 61.894 43.479 70.074 37.167 74.015zM59.926 64.527c-0.905-0.566-2.25-1.439-3.811-2.551 1.175-2.488 1.798-5.13 1.504-7.842-0.265-2.993-1.078-4.862-3.002-6.897-2.588-2.734-5.401-4.121-8.362-4.121-2.095 0-3.96 0.703-5.545 1.678-0.641-1.833-0.884-3.598-0.702-5.285 0.243-2.736 0.856-3.784 2.23-5.235 2.313-2.446 4.643-3.576 6.924-3.354 3.765 0.363 7.206 4.298 8.645 6.566 0.458 0.722 1.254 1.16 2.109 1.16 0.001 0 0.001 0 0.001 0 0.855 0 1.651-0.438 2.11-1.159 1.441-2.269 4.885-6.206 8.647-6.567 2.275-0.214 4.609 0.91 6.924 3.355 1.374 1.452 1.986 2.5 2.232 5.283C80.859 49.044 67.899 59.613 59.926 64.527z" fill="black"></path></svg></g></svg></g></svg></g></svg></g></svg></g><g></g></svg></g><defs><mask></mask></defs></svg><rect width="277.3010430736099" height="59.371435546875" fill="black" stroke="none" visibility="hidden"></rect></g></mask><linearGradient x1="0" x2="1" y1="0.578" y2="0.595" id="27b79e8d-7f3c-4ddb-a520-f4750d1b2040"><stop stop-color="#6ee2f5" offset="0"></stop><stop stop-color="#6454f0" offset="1"></stop></linearGradient><rect width="277.3010430736099" height="59.371435546875" fill="url(#27b79e8d-7f3c-4ddb-a520-f4750d1b2040)" mask="url(#7a70a598-46e5-4495-ac92-cf0153788a66)" data-fill-palette-color="primary"></rect><mask id="7c1f331c-ecd4-4f36-9282-4ec0a89ff0f9"><g id="SvgjsG6926"><svg viewBox="0 0 277.3010430736099 59.371435546875" height="59.371435546875" width="277.3010430736099"><g><svg viewBox="0 0 277.3010430736099 59.371435546875" height="59.371435546875" width="277.3010430736099"><g><svg viewBox="0 0 277.3010430736099 59.371435546875" height="59.371435546875" width="277.3010430736099"><g id="SvgjsG6925"><svg viewBox="0 0 277.3010430736099 59.371435546875" height="59.371435546875" width="277.3010430736099" id="SvgjsSvg6924"><g><svg viewBox="0 0 277.3010430736099 59.371435546875" height="59.371435546875" width="277.3010430736099"><g><svg><g></g><g></g></svg></g><g><svg><g><svg></svg></g><g></g></svg></g><g id="SvgjsG6923"><svg viewBox="0 0 277.3010430736099 59.371435546875" height="59.371435546875" width="277.3010430736099"><g transform="matrix(1,0,0,1,0,0)"><svg width="187.63427734375" viewBox="3.98 -35.99 115.96 36.7" height="59.371435546875" data-palette-color="url(#27b79e8d-7f3c-4ddb-a520-f4750d1b2040)"></svg></g><g><svg xmlns="http://www.w3.org/2000/svg" xmlns:xlink="http://www.w3.org/1999/xlink" version="1.1" x="201.651513671875" y="0" viewBox="16.647181205534803 25.890368060254534 68.24810386403662 53.56263193974547" enable-background="new 0 0 100 100" xml:space="preserve" height="59.371435546875" width="75.64952940173492" class="icon-cg-0" data-fill-palette-color="accent" id="SvgjsSvg6922"><path d="M84.808 39.07c-0.314-3.579-1.284-5.81-3.576-8.231-3.428-3.623-7.145-5.273-11.034-4.896-4.542 0.437-8.126 3.59-10.278 6.064-2.151-2.473-5.733-5.625-10.277-6.063-3.888-0.379-7.607 1.272-11.035 4.895-2.292 2.42-3.262 4.651-3.574 8.183-0.268 2.479 0.091 5.044 1.043 7.659-1.959-1.817-4.698-3.563-8-3.563-2.96 0-5.773 1.387-8.361 4.122-1.924 2.035-2.737 3.904-2.996 6.849-1.316 12.162 15.6 22.868 18.83 24.795 0.188 0.154 0.4 0.283 0.632 0.379 0.309 0.128 0.634 0.19 0.956 0.19 0.222 0 0.443-0.029 0.656-0.088 0.2-0.05 0.396-0.126 0.583-0.226 0.109-0.059 0.212-0.124 0.31-0.197 1.917-1.136 9.815-6.054 14.808-12.694 2.243 1.585 4.024 2.682 4.798 3.143 0.115 0.095 0.239 0.181 0.372 0.255 0.38 0.213 0.801 0.318 1.222 0.318 0.158 0 0.316-0.015 0.472-0.045 0.269-0.046 0.531-0.136 0.778-0.268 0.116-0.063 0.226-0.134 0.329-0.212C65.005 67.344 86.428 54.021 84.808 39.07zM37.167 74.015c-6.313-3.94-16.264-12.125-15.473-19.439 0.178-2.016 0.587-2.774 1.653-3.901 1.606-1.697 3.197-2.557 4.729-2.557 3.722 0 6.85 4.852 6.981 5.059 0.459 0.722 1.255 1.158 2.11 1.158 0 0 0.001 0 0.001 0 0.856-0.001 1.652-0.438 2.11-1.161 0.062-0.099 0.804-1.246 1.961-2.423 0.19-0.141 0.36-0.3 0.499-0.482 1.225-1.126 2.805-2.151 4.518-2.151 1.532 0 3.124 0.86 4.729 2.557 1.065 1.127 1.476 1.886 1.659 3.95C53.43 61.894 43.479 70.074 37.167 74.015zM59.926 64.527c-0.905-0.566-2.25-1.439-3.811-2.551 1.175-2.488 1.798-5.13 1.504-7.842-0.265-2.993-1.078-4.862-3.002-6.897-2.588-2.734-5.401-4.121-8.362-4.121-2.095 0-3.96 0.703-5.545 1.678-0.641-1.833-0.884-3.598-0.702-5.285 0.243-2.736 0.856-3.784 2.23-5.235 2.313-2.446 4.643-3.576 6.924-3.354 3.765 0.363 7.206 4.298 8.645 6.566 0.458 0.722 1.254 1.16 2.109 1.16 0.001 0 0.001 0 0.001 0 0.855 0 1.651-0.438 2.11-1.159 1.441-2.269 4.885-6.206 8.647-6.567 2.275-0.214 4.609 0.91 6.924 3.355 1.374 1.452 1.986 2.5 2.232 5.283C80.859 49.044 67.899 59.613 59.926 64.527z" fill="white"></path></svg></g></svg></g></svg></g></svg></g></svg></g><g></g></svg></g><defs><mask></mask></defs><mask><g id="SvgjsG6921"><svg viewBox="0 0 277.3010430736099 59.371435546875" height="59.371435546875" width="277.3010430736099"><g><svg viewBox="0 0 277.3010430736099 59.371435546875" height="59.371435546875" width="277.3010430736099"><g><svg viewBox="0 0 277.3010430736099 59.371435546875" height="59.371435546875" width="277.3010430736099"><g id="SvgjsG6920"><svg viewBox="0 0 277.3010430736099 59.371435546875" height="59.371435546875" width="277.3010430736099" id="SvgjsSvg6919"><g><svg viewBox="0 0 277.3010430736099 59.371435546875" height="59.371435546875" width="277.3010430736099"><g><svg><g></g><g></g></svg></g><g><svg><g><svg></svg></g><g></g></svg></g><g id="SvgjsG6918"><svg viewBox="0 0 277.3010430736099 59.371435546875" height="59.371435546875" width="277.3010430736099"><g transform="matrix(1,0,0,1,0,0)"><svg width="187.63427734375" viewBox="3.98 -35.99 115.96 36.7" height="59.371435546875" data-palette-color="url(#27b79e8d-7f3c-4ddb-a520-f4750d1b2040)"><path d="M29.22-4.47L29.22 0 3.98 0 3.98-35.16 13.67-35.16 13.67-4.47 29.22-4.47ZM48.83 0L40.79-26.22 38.06 0 32.08 0 38.06-35.16 46.92-35.16 55.15-8.33 63.47-35.16 72.34-35.16 77.32 0 67.45 0 64.55-25.54 57.69 0 48.83 0ZM119.94-17.63L119.94-17.63Q119.94-13.38 118.48-9.97 117.01-6.57 114.42-4.2 111.84-1.83 108.3-0.56 104.76 0.71 100.63 0.71L100.63 0.71Q96.5 0.71 92.96-0.56 89.42-1.83 86.84-4.2 84.25-6.57 82.78-9.97 81.32-13.38 81.32-17.63L81.32-17.63Q81.32-21.95 82.77-25.35 84.22-28.76 86.8-31.12 89.37-33.47 92.91-34.73 96.45-35.99 100.63-35.99L100.63-35.99Q104.8-35.99 108.34-34.73 111.88-33.47 114.46-31.12 117.04-28.76 118.49-25.35 119.94-21.95 119.94-17.63ZM110.08-17.63L110.08-17.63Q110.08-19.24 109.93-20.92 109.79-22.61 109.39-24.19 109-25.78 108.33-27.17 107.66-28.56 106.61-29.6 105.56-30.64 104.08-31.24 102.61-31.84 100.63-31.84L100.63-31.84Q98.63-31.84 97.14-31.24 95.65-30.64 94.6-29.61 93.55-28.59 92.89-27.2 92.23-25.81 91.85-24.23 91.47-22.66 91.33-20.96 91.18-19.26 91.18-17.63L91.18-17.63Q91.18-16.02 91.33-14.33 91.47-12.65 91.87-11.07 92.26-9.5 92.93-8.11 93.6-6.71 94.65-5.68 95.7-4.64 97.18-4.03 98.65-3.42 100.63-3.42L100.63-3.42Q102.56-3.42 104-4.04 105.44-4.66 106.49-5.73 107.54-6.79 108.23-8.19 108.93-9.59 109.33-11.17 109.74-12.74 109.91-14.4 110.08-16.06 110.08-17.63Z" opacity="1" transform="matrix(1,0,0,1,0,0)" fill="black" class="wordmark-text-0"></path></svg></g><g><svg xmlns="http://www.w3.org/2000/svg" xmlns:xlink="http://www.w3.org/1999/xlink" version="1.1" x="201.651513671875" y="0" viewBox="16.647181205534803 25.890368060254534 68.24810386403662 53.56263193974547" enable-background="new 0 0 100 100" xml:space="preserve" height="59.371435546875" width="75.64952940173492" class="icon-cg-0" data-fill-palette-color="accent" id="SvgjsSvg6917"><path d="M84.808 39.07c-0.314-3.579-1.284-5.81-3.576-8.231-3.428-3.623-7.145-5.273-11.034-4.896-4.542 0.437-8.126 3.59-10.278 6.064-2.151-2.473-5.733-5.625-10.277-6.063-3.888-0.379-7.607 1.272-11.035 4.895-2.292 2.42-3.262 4.651-3.574 8.183-0.268 2.479 0.091 5.044 1.043 7.659-1.959-1.817-4.698-3.563-8-3.563-2.96 0-5.773 1.387-8.361 4.122-1.924 2.035-2.737 3.904-2.996 6.849-1.316 12.162 15.6 22.868 18.83 24.795 0.188 0.154 0.4 0.283 0.632 0.379 0.309 0.128 0.634 0.19 0.956 0.19 0.222 0 0.443-0.029 0.656-0.088 0.2-0.05 0.396-0.126 0.583-0.226 0.109-0.059 0.212-0.124 0.31-0.197 1.917-1.136 9.815-6.054 14.808-12.694 2.243 1.585 4.024 2.682 4.798 3.143 0.115 0.095 0.239 0.181 0.372 0.255 0.38 0.213 0.801 0.318 1.222 0.318 0.158 0 0.316-0.015 0.472-0.045 0.269-0.046 0.531-0.136 0.778-0.268 0.116-0.063 0.226-0.134 0.329-0.212C65.005 67.344 86.428 54.021 84.808 39.07zM37.167 74.015c-6.313-3.94-16.264-12.125-15.473-19.439 0.178-2.016 0.587-2.774 1.653-3.901 1.606-1.697 3.197-2.557 4.729-2.557 3.722 0 6.85 4.852 6.981 5.059 0.459 0.722 1.255 1.158 2.11 1.158 0 0 0.001 0 0.001 0 0.856-0.001 1.652-0.438 2.11-1.161 0.062-0.099 0.804-1.246 1.961-2.423 0.19-0.141 0.36-0.3 0.499-0.482 1.225-1.126 2.805-2.151 4.518-2.151 1.532 0 3.124 0.86 4.729 2.557 1.065 1.127 1.476 1.886 1.659 3.95C53.43 61.894 43.479 70.074 37.167 74.015zM59.926 64.527c-0.905-0.566-2.25-1.439-3.811-2.551 1.175-2.488 1.798-5.13 1.504-7.842-0.265-2.993-1.078-4.862-3.002-6.897-2.588-2.734-5.401-4.121-8.362-4.121-2.095 0-3.96 0.703-5.545 1.678-0.641-1.833-0.884-3.598-0.702-5.285 0.243-2.736 0.856-3.784 2.23-5.235 2.313-2.446 4.643-3.576 6.924-3.354 3.765 0.363 7.206 4.298 8.645 6.566 0.458 0.722 1.254 1.16 2.109 1.16 0.001 0 0.001 0 0.001 0 0.855 0 1.651-0.438 2.11-1.159 1.441-2.269 4.885-6.206 8.647-6.567 2.275-0.214 4.609 0.91 6.924 3.355 1.374 1.452 1.986 2.5 2.232 5.283C80.859 49.044 67.899 59.613 59.926 64.527z" fill="black"></path></svg></g></svg></g></svg></g></svg></g></svg></g><g></g></svg></g><defs><mask></mask></defs></svg><rect width="277.3010430736099" height="59.371435546875" fill="black" stroke="none" visibility="hidden"></rect></g></mask></svg><rect width="277.3010430736099" height="59.371435546875" fill="black" stroke="none" visibility="hidden"></rect></g></mask><linearGradient x1="0" x2="1" y1="0.578" y2="0.595" id="20275749-16f5-463a-87e0-3c5a06f4b4b6"><stop stop-color="#6ee2f5" offset="0"></stop><stop stop-color="#6454f0" offset="1"></stop></linearGradient><rect width="277.3010430736099" height="59.371435546875" fill="url(#20275749-16f5-463a-87e0-3c5a06f4b4b6)" mask="url(#7c1f331c-ecd4-4f36-9282-4ec0a89ff0f9)" data-fill-palette-color="accent"></rect></svg><rect width="277.3010430736099" height="59.371435546875" fill="none" stroke="none" visibility="hidden"></rect></g></svg></g></svg>